<svg width="512" height="512" xmlns="http://www.w3.org/2000/svg" viewBox="0 0 512 512">
  <!-- Gradient Definition -->
  <defs>
    <linearGradient id="logoGradient" x1="0%" y1="0%" x2="100%" y2="100%">
      <stop offset="0%" style="stop-color:#10b981;stop-opacity:1" />
      <stop offset="100%" style="stop-color:#8b5cf6;stop-opacity:1" />
    </linearGradient>
  </defs>
  
  <!-- Background with rounded corners -->
  <rect width="512" height="512" rx="102" fill="url(#logoGradient)"/>
  
  <!-- Book Icon (scaled from 24x24 to fit nicely in 512x512) -->
  <g transform="translate(176, 160) scale(6.666)">
    <path stroke="white" 
          stroke-width="2" 
          stroke-linecap="round" 
          stroke-linejoin="round" 
          fill="none"
          d="M12 6.253v13m0-13C10.832 5.477 9.246 5 7.5 5S4.168 5.477 3 6.253v13C4.168 18.477 5.754 18 7.5 18s3.332.477 4.5 1.253m0-13C13.168 5.477 14.754 5 16.5 5c1.747 0 3.332.477 4.5 1.253v13C19.832 18.477 18.247 18 16.5 18c-1.746 0-3.332.477-4.5 1.253"/>
  </g>
  
  <!-- Amber Star Badge -->
  <circle cx="360" cy="152" r="64" fill="#fbbf24"/>
  <path d="M360 112l6.184 12.534 13.816 2.007-10 9.753 2.36 13.756-12.36-6.499-12.36 6.499 2.36-13.756-10-9.753 13.816-2.007z" 
        fill="#78350f"/>
</svg>
